<?xml version="1.0" encoding="utf-8"?><svg version="1.1" id="Layer_1" xmlns="http://www.w3.org/2000/svg" xmlns:xlink="http://www.w3.org/1999/xlink" x="0px" y="0px" viewBox="0 0 122.88 122.88" style="enable-background:new 0 0 122.88 122.88" xml:space="preserve"><style type="text/css">.st0{fill-rule:evenodd;clip-rule:evenodd;}</style><g><polygon class="st0" points="76.73,10.98 91.56,25.81 102.72,14.65 93.57,5.51 99.09,0 122.88,23.8 117.37,29.31 108.23,20.17 97.07,31.32 112.1,46.35 106.58,51.86 99.98,45.26 35.79,109.45 27.36,101.03 5.51,122.88 0,117.37 21.85,95.52 13.52,87.18 21.45,79.24 32.67,90.47 38.2,84.95 26.98,73.72 36.77,63.93 47.99,75.15 53.52,69.63 42.29,58.41 52.09,48.61 63.31,59.83 68.83,54.31 57.61,43.09 67.4,33.29 78.63,44.52 84.15,38.99 72.93,27.77 77.71,22.98 71.22,16.49 76.73,10.98"/></g></svg>